<svg width="1000" height="127" viewBox="0 0 1000 127" fill="none" xmlns="http://www.w3.org/2000/svg">
<g clip-path="url(#clip0_76_309)">
<path d="M926.114 25.9004H939.274L962.934 82.6004L986.594 25.9004H999.754L957.894 126.7H944.734L956.774 97.3004L926.114 25.9004Z" fill="#191B3A"/>
<path d="M921.2 34.4398C918.12 34.4398 915.227 34.9998 912.52 36.1198C909.813 37.2398 907.433 38.7798 905.38 40.7398C903.42 42.6998 901.833 45.0331 900.62 47.7398C899.5 50.3531 898.94 53.1998 898.94 56.2798V101.5H886.62V57.5398C886.62 52.7798 887.507 48.3465 889.28 44.2398C891.147 40.1331 893.62 36.5865 896.7 33.5998C899.873 30.5198 903.56 28.1398 907.76 26.4598C911.96 24.6865 916.44 23.7998 921.2 23.7998V34.4398Z" fill="#191B3A"/>
<path d="M831.461 23.7998C837.061 23.7998 842.334 24.8731 847.281 27.0198C852.227 29.0731 856.521 31.9198 860.161 35.5598C863.801 39.1065 866.694 43.3065 868.841 48.1598C870.987 53.0131 872.061 58.1931 872.061 63.6998V101.5H860.021V90.5798C856.474 94.5931 852.274 97.7665 847.421 100.1C842.568 102.433 837.247 103.6 831.461 103.6C825.861 103.6 820.587 102.573 815.641 100.52C810.694 98.3731 806.401 95.5265 802.761 91.9798C799.121 88.3398 796.227 84.0931 794.081 79.2398C791.934 74.3865 790.861 69.2065 790.861 63.6998C790.861 58.1931 791.934 53.0131 794.081 48.1598C796.227 43.3065 799.121 39.1065 802.761 35.5598C806.401 31.9198 810.694 29.0731 815.641 27.0198C820.587 24.8731 825.861 23.7998 831.461 23.7998ZM831.601 92.9598C835.521 92.9598 839.207 92.2131 842.661 90.7198C846.114 89.1331 849.101 87.0331 851.621 84.4198C854.234 81.7131 856.287 78.5865 857.781 75.0398C859.274 71.4931 860.021 67.7131 860.021 63.6998C860.021 59.6865 859.274 55.9065 857.781 52.3598C856.287 48.8131 854.234 45.7331 851.621 43.1198C849.101 40.4131 846.114 38.3131 842.661 36.8198C839.207 35.2331 835.521 34.4398 831.601 34.4398C827.681 34.4398 823.994 35.2331 820.541 36.8198C817.087 38.3131 814.054 40.4131 811.441 43.1198C808.921 45.7331 806.914 48.8131 805.421 52.3598C803.928 55.9065 803.181 59.6865 803.181 63.6998C803.181 67.7131 803.928 71.4931 805.421 75.0398C806.914 78.5865 808.921 81.7131 811.441 84.4198C814.054 87.0331 817.087 89.1331 820.541 90.7198C823.994 92.2131 827.681 92.9598 831.601 92.9598Z" fill="#191B3A"/>
<path d="M785.302 34.4398C782.222 34.4398 779.328 34.9998 776.622 36.1198C773.915 37.2398 771.535 38.7798 769.482 40.7398C767.522 42.6998 765.935 45.0331 764.722 47.7398C763.602 50.3531 763.042 53.1998 763.042 56.2798V101.5H750.722V57.5398C750.722 52.7798 751.608 48.3465 753.382 44.2398C755.248 40.1331 757.722 36.5865 760.802 33.5998C763.975 30.5198 767.662 28.1398 771.862 26.4598C776.062 24.6865 780.542 23.7998 785.302 23.7998V34.4398Z" fill="#191B3A"/>
<path d="M697.969 23.8002C703.569 23.8002 708.842 24.8735 713.789 27.0202C718.735 29.0735 723.029 31.9202 726.669 35.5602C730.309 39.1069 733.202 43.3069 735.349 48.1602C737.495 53.0135 738.569 58.1935 738.569 63.7002C738.569 69.2069 737.495 74.3869 735.349 79.2402C733.202 84.0935 730.309 88.3402 726.669 91.9802C723.029 95.5269 718.735 98.3735 713.789 100.52C708.842 102.574 703.569 103.6 697.969 103.6C692.275 103.6 686.955 102.434 682.009 100.1C677.155 97.7669 672.955 94.5935 669.409 90.5802V101.5H657.369V0.700195H669.689V35.7002C673.235 32.0602 677.435 29.1669 682.289 27.0202C687.142 24.8735 692.369 23.8002 697.969 23.8002ZM697.829 92.9602C701.749 92.9602 705.435 92.2135 708.889 90.7202C712.342 89.1335 715.329 87.0335 717.849 84.4202C720.462 81.7135 722.515 78.5869 724.009 75.0402C725.502 71.4935 726.249 67.7135 726.249 63.7002C726.249 59.6869 725.502 55.9069 724.009 52.3602C722.515 48.8135 720.462 45.7335 717.849 43.1202C715.329 40.4135 712.342 38.3135 708.889 36.8202C705.435 35.2335 701.749 34.4402 697.829 34.4402C693.909 34.4402 690.222 35.2335 686.769 36.8202C683.315 38.3135 680.282 40.4135 677.669 43.1202C675.149 45.7335 673.142 48.8135 671.649 52.3602C670.155 55.9069 669.409 59.6869 669.409 63.7002C669.409 67.7135 670.155 71.4935 671.649 75.0402C673.142 78.5869 675.149 81.7135 677.669 84.4202C680.282 87.0335 683.315 89.1335 686.769 90.7202C690.222 92.2135 693.909 92.9602 697.829 92.9602Z" fill="#191B3A"/>
<path d="M633.34 16.8C631.007 16.8 629 16.0067 627.32 14.42C625.733 12.74 624.94 10.7333 624.94 8.4C624.94 6.06666 625.733 4.10666 627.32 2.52C629 0.84 631.007 0 633.34 0C635.673 0 637.633 0.84 639.22 2.52C640.9 4.10666 641.74 6.06666 641.74 8.4C641.74 10.7333 640.9 12.74 639.22 14.42C637.633 16.0067 635.673 16.8 633.34 16.8ZM639.5 25.9V101.5H627.18V25.9H639.5Z" fill="#191B3A"/>
<path d="M596.939 101.5V0.700195H609.259V101.5H596.939Z" fill="#191B3A"/>
<path d="M561.388 71.1202C561.388 74.2002 561.948 77.0935 563.068 79.8002C564.281 82.4135 565.868 84.7002 567.828 86.6602C569.881 88.6202 572.261 90.1602 574.968 91.2802C577.675 92.4002 580.568 92.9602 583.648 92.9602V103.6C578.888 103.6 574.408 102.76 570.208 101.08C566.008 99.3069 562.321 96.9269 559.148 93.9402C556.068 90.8602 553.595 87.2669 551.728 83.1602C549.955 79.0535 549.068 74.6202 549.068 69.8602V0.700195H561.388V25.9002H583.648V36.5402H561.388V71.1202Z" fill="#EE0000"/>
<path d="M537.294 34.4398C534.214 34.4398 531.321 34.9998 528.614 36.1198C525.907 37.2398 523.527 38.7798 521.474 40.7398C519.514 42.6998 517.927 45.0331 516.714 47.7398C515.594 50.3531 515.034 53.1998 515.034 56.2798V101.5H502.714V57.5398C502.714 52.7798 503.601 48.3465 505.374 44.2398C507.241 40.1331 509.714 36.5865 512.794 33.5998C515.967 30.5198 519.654 28.1398 523.854 26.4598C528.054 24.6865 532.534 23.7998 537.294 23.7998V34.4398Z" fill="#EE0000"/>
<path d="M447.555 23.7998C453.155 23.7998 458.428 24.8731 463.375 27.0198C468.321 29.0731 472.615 31.9198 476.255 35.5598C479.895 39.1065 482.788 43.3065 484.935 48.1598C487.081 53.0131 488.155 58.1931 488.155 63.6998V101.5H476.115V90.5798C472.568 94.5931 468.368 97.7665 463.515 100.1C458.661 102.433 453.341 103.6 447.555 103.6C441.955 103.6 436.681 102.573 431.735 100.52C426.788 98.3731 422.495 95.5265 418.855 91.9798C415.215 88.3398 412.321 84.0931 410.175 79.2398C408.028 74.3865 406.955 69.2065 406.955 63.6998C406.955 58.1931 408.028 53.0131 410.175 48.1598C412.321 43.3065 415.215 39.1065 418.855 35.5598C422.495 31.9198 426.788 29.0731 431.735 27.0198C436.681 24.8731 441.955 23.7998 447.555 23.7998ZM447.695 92.9598C451.615 92.9598 455.301 92.2131 458.755 90.7198C462.208 89.1331 465.195 87.0331 467.715 84.4198C470.328 81.7131 472.381 78.5865 473.875 75.0398C475.368 71.4931 476.115 67.7131 476.115 63.6998C476.115 59.6865 475.368 55.9065 473.875 52.3598C472.381 48.8131 470.328 45.7331 467.715 43.1198C465.195 40.4131 462.208 38.3131 458.755 36.8198C455.301 35.2331 451.615 34.4398 447.695 34.4398C443.775 34.4398 440.088 35.2331 436.635 36.8198C433.181 38.3131 430.148 40.4131 427.535 43.1198C425.015 45.7331 423.008 48.8131 421.515 52.3598C420.021 55.9065 419.275 59.6865 419.275 63.6998C419.275 67.7131 420.021 71.4931 421.515 75.0398C423.008 78.5865 425.015 81.7131 427.535 84.4198C430.148 87.0331 433.181 89.1331 436.635 90.7198C440.088 92.2131 443.775 92.9598 447.695 92.9598Z" fill="#EE0000"/>
<path d="M362.375 23.7998C366.855 23.7998 371.055 24.6398 374.975 26.3198C378.895 27.9065 382.301 30.0998 385.195 32.8998C388.181 35.6998 390.515 39.0131 392.195 42.8398C393.875 46.6665 394.715 50.8198 394.715 55.2998V101.5H382.395V54.0398C382.395 51.2398 381.881 48.6731 380.855 46.3398C379.828 43.9131 378.381 41.8598 376.515 40.1798C374.741 38.4065 372.641 37.0065 370.215 35.9798C367.788 34.9531 365.175 34.4398 362.375 34.4398C359.575 34.4398 356.961 34.9531 354.535 35.9798C352.108 37.0065 349.961 38.4065 348.095 40.1798C346.321 41.8598 344.921 43.9131 343.895 46.3398C342.868 48.6731 342.355 51.2398 342.355 54.0398V101.5H330.035V54.0398C330.035 51.2398 329.521 48.6731 328.495 46.3398C327.468 43.9131 326.021 41.8598 324.155 40.1798C322.381 38.4065 320.281 37.0065 317.855 35.9798C315.428 34.9531 312.815 34.4398 310.015 34.4398C307.215 34.4398 304.601 34.9531 302.175 35.9798C299.748 37.0065 297.601 38.4065 295.735 40.1798C293.961 41.8598 292.561 43.9131 291.535 46.3398C290.508 48.6731 289.995 51.2398 289.995 54.0398V101.5H277.675V55.2998C277.675 50.8198 278.515 46.6665 280.195 42.8398C281.875 39.0131 284.161 35.6998 287.055 32.8998C290.041 30.0998 293.495 27.9065 297.415 26.3198C301.335 24.6398 305.535 23.7998 310.015 23.7998C315.335 23.7998 320.235 24.9198 324.715 27.1598C329.195 29.3065 333.021 32.2931 336.195 36.1198C339.275 32.2931 343.055 29.3065 347.535 27.1598C352.108 24.9198 357.055 23.7998 362.375 23.7998Z" fill="#EE0000"/>
<path d="M222.8 80.0798C222.8 81.8531 223.173 83.5331 223.92 85.1198C224.76 86.7065 225.88 88.1065 227.28 89.3198C228.68 90.4398 230.313 91.3265 232.18 91.9798C234.047 92.6331 236.053 92.9598 238.2 92.9598C240.347 92.9598 242.353 92.6331 244.22 91.9798C246.087 91.3265 247.72 90.4398 249.12 89.3198C250.52 88.1065 251.593 86.7065 252.34 85.1198C253.18 83.5331 253.6 81.8531 253.6 80.0798C253.6 73.5465 249.633 69.2998 241.7 67.3398C237.313 66.2198 233.347 65.0065 229.8 63.6998C226.253 62.3931 223.22 60.8531 220.7 59.0798C218.273 57.2131 216.36 55.1131 214.96 52.7798C213.653 50.4465 213 47.7398 213 44.6598C213 41.8598 213.56 39.1998 214.68 36.6798C215.8 34.1598 217.387 31.9665 219.44 30.0998C221.587 28.1398 224.153 26.5998 227.14 25.4798C230.22 24.3598 233.627 23.7998 237.36 23.7998C241.187 23.7998 244.64 24.3598 247.72 25.4798C250.8 26.5065 253.413 27.9998 255.56 29.9598C257.8 31.9198 259.527 34.2531 260.74 36.9598C261.953 39.6665 262.56 42.6531 262.56 45.9198H250.24C250.053 42.3731 248.84 39.5731 246.6 37.5198C244.453 35.4665 241.373 34.4398 237.36 34.4398C234.093 34.4398 231.247 35.3731 228.82 37.2398C226.487 39.0131 225.32 41.3931 225.32 44.3798C225.32 47.3665 227.047 49.8398 230.5 51.7998C233.953 53.6665 238.34 55.2531 243.66 56.5598C250.287 58.1465 255.653 60.8065 259.76 64.5398C263.867 68.1798 265.92 73.0798 265.92 79.2398C265.92 82.5998 265.267 85.7731 263.96 88.7598C262.653 91.6531 260.787 94.2198 258.36 96.4598C255.933 98.6065 252.993 100.333 249.54 101.64C246.18 102.946 242.4 103.6 238.2 103.6C234.373 103.6 230.78 102.993 227.42 101.78C224.06 100.566 221.12 98.8865 218.6 96.7398C216.08 94.5931 214.073 92.1198 212.58 89.3198C211.18 86.4265 210.48 83.3465 210.48 80.0798H222.8Z" fill="#EE0000"/>
<path d="M0 21.6576V108.988H3.38645V21.6576C3.38645 20.4742 2.19051 19.6559 1.08268 20.0839C0.428047 20.3357 0 20.9652 0 21.6576Z" fill="#EE0000"/>
<path d="M19.0218 108.988V22.1486C19.0218 21.7709 19.2484 21.4436 19.6009 21.3051C19.7016 21.2674 19.8149 21.2422 19.9282 21.2422C20.3689 21.2422 20.8346 21.5821 20.8346 22.1486V108.988H19.0344H19.0218ZM12.9414 108.988V24.8049C12.9414 24.4398 13.1679 24.0999 13.5204 23.9614C13.6337 23.9237 13.7344 23.8985 13.8477 23.8985C14.2758 23.8985 14.7416 24.2384 14.7416 24.8049V108.988H12.9414ZM6.86084 108.988V27.4738C6.86084 27.0961 7.08747 26.7688 7.43996 26.6303C7.54067 26.5925 7.65391 26.5674 7.76721 26.5674C8.19524 26.5674 8.66106 26.9073 8.66106 27.4738V108.988H6.86084Z" fill="#EE0000"/>
<path d="M98.8742 37.0916L29.1312 10.2266C28.3506 9.92447 27.482 9.92447 26.7015 10.2266C25.3922 10.7302 24.5361 11.9765 24.5361 13.3739V108.987H102.966V43.0462C102.966 40.4025 101.342 38.0357 98.8742 37.079V37.0916Z" fill="#EE0000"/>
<path d="M179.009 24.3041V108.981H174.851V24.3041C174.851 22.8527 176.303 21.8523 177.676 22.3623C178.48 22.6761 179.009 23.4411 179.009 24.3041Z" fill="#191B3A"/>
<path d="M153.471 108.98V24.8924C153.471 24.2058 154.04 23.7939 154.569 23.7939C154.707 23.7939 154.844 23.8136 154.962 23.8724C155.393 24.0293 155.668 24.4412 155.668 24.912V109H153.451L153.471 108.98ZM160.924 108.98V28.168C160.924 27.4815 161.493 27.0696 162.023 27.0696C162.16 27.0696 162.297 27.0892 162.435 27.1481C162.866 27.305 163.141 27.7169 163.141 28.1876V109H160.924V108.98ZM168.378 108.98V31.4436C168.378 30.7571 168.947 30.3452 169.476 30.3452C169.614 30.3452 169.751 30.3649 169.869 30.4237C170.3 30.5806 170.575 30.9925 170.575 31.4633V109H168.358L168.378 108.98Z" fill="#191B3A"/>
<path d="M76.0188 43.2387L144.495 10.2796C145.264 9.90681 146.112 9.90681 146.881 10.2796C148.168 10.8877 149 12.4376 149 14.1444V109H72V50.5564C72 47.3194 73.6012 44.3962 76.0188 43.2387Z" fill="#191B3A"/>
</g>
<defs>
<clipPath id="clip0_76_309">
<rect width="999.754" height="126.7" fill="white"/>
</clipPath>
</defs>
</svg>
